<?xml version="1.0" encoding="utf-8"?>
<!-- Generator: Adobe Illustrator 26.0.1, SVG Export Plug-In . SVG Version: 6.00 Build 0)  -->
<svg version="1.0" id="Layer_1" xmlns="http://www.w3.org/2000/svg" xmlns:xlink="http://www.w3.org/1999/xlink" x="0px" y="0px"
	 viewBox="0 0 1079.1 409.1" style="enable-background:new 0 0 1079.1 409.1;" xml:space="preserve">
<style type="text/css">
	.st0{fill:#FFFFFF;}
	.st1{fill:#1D356F;}
	.st2{fill:#5AC4F6;}
	.st3{fill:none;stroke:#FFFFFF;stroke-width:7;stroke-linecap:round;stroke-miterlimit:10;}
	.st4{fill:none;stroke:#1D356F;stroke-width:7;stroke-linecap:round;stroke-miterlimit:10;}
	.st5{fill:url(#SVGID_1_);}
	.st6{fill:url(#SVGID_00000140729922830452461410000014491766183365809538_);}
	.st7{fill:url(#SVGID_00000024687851500534812600000007846942650219383719_);}
	.st8{fill:url(#SVGID_00000160174760516912624990000009524768804663544487_);}
	.st9{fill:#FEA702;}
</style>
<g>
	<path class="st2" d="M308.5,191.5c11.2-49.9-33.1-52.9-33.1-52.9c-11.2-31.3-38.4-24.2-38.4-24.2S229.2,88,191.6,88
		c-37.6,0-49.9,26.8-49.9,26.8c-31.3-3.4-35.7,24.9-35.7,24.9c-14.5-4.1-37.2,17.1-37.2,30.5c0,13.4,4.8,19.4,4.8,19.4
		s-7.1,2.2-7.1,23.8s22.3,23.8,22.3,23.8l7.8,28.7l1.9-34.3l4.8-6.7c5.6,16.8,13,14.5,13,14.5L119,276l3-36.5
		c6.3-9.7,13.6-1.5,13.6-1.5l5.2,27.6l0.6-26.6l4.3-9.1c8.4,10.4,21.8,16.4,21.8,16.4v24.2c0,2-0.3,4-0.9,5.9
		c-9.8,28.2-53.8,21.3-53.8,21.3c17.9,9.7,35.4,10.8,35.4,10.8c-9.7,11.9-4.8,25.7-4.8,25.7s14.5-28.3,27.9-29.4
		c13.4-1.1,19.4,18.2,19.4,18.2s9.3-16.8,19.4-16.8c10.1,0,29.8,29,29.8,29c1.5-13.4-5.2-28.7-5.2-28.7c19,0,31.3-10.8,31.3-10.8
		c-52.9,4.8-51.4-27.9-51.4-27.9v-22.7c16-3.4,21.6-16,21.6-16c2.2,2.2,6.3,39.1,6.3,39.1l3-30.5c7.8-3.7,13.4,0.7,13.4,0.7
		l4.5,41.7l4.5-38.7c8.9-4.5,9.7-14.5,9.7-14.5l7.1,6.7l3,32l4.1-28.3c20.1,0,26.1-13.8,26.1-26.4
		C317.5,198.2,308.5,191.5,308.5,191.5z M208,100.1c4.1,0,7.4,3.3,7.4,7.4c0,4.1-3.3,7.4-7.4,7.4c-4.1,0-7.4-3.3-7.4-7.4
		C200.6,103.4,203.9,100.1,208,100.1z M219.2,194.3c4.1,0,7.4,3.3,7.4,7.4s-3.3,7.4-7.4,7.4c-4.1,0-7.4-3.3-7.4-7.4
		S215.1,194.3,219.2,194.3z M201.7,141.2c4.1,0,7.4,3.3,7.4,7.4s-3.3,7.4-7.4,7.4c-4.1,0-7.4-3.3-7.4-7.4S197.6,141.2,201.7,141.2z
		 M174.1,120.8c4.1,0,7.4,3.3,7.4,7.4s-3.3,7.4-7.4,7.4c-4.1,0-7.4-3.3-7.4-7.4S170,120.8,174.1,120.8z M170.9,202.3
		c0,4.1-3.3,7.4-7.4,7.4s-7.4-3.3-7.4-7.4c0-4.1,3.3-7.4,7.4-7.4S170.9,198.2,170.9,202.3z M121.8,147.4c4.1,0,7.4,3.3,7.4,7.4
		c0,4.1-3.3,7.4-7.4,7.4c-4.1,0-7.4-3.3-7.4-7.4C114.3,150.7,117.7,147.4,121.8,147.4z M92.2,181.8c-4.1,0-7.4-3.3-7.4-7.4
		c0-4.1,3.3-7.4,7.4-7.4c4.1,0,7.4,3.3,7.4,7.4C99.6,178.5,96.3,181.8,92.2,181.8z M107.3,217.2c-4.1,0-7.4-3.3-7.4-7.4
		s3.3-7.4,7.4-7.4c4.1,0,7.4,3.3,7.4,7.4S111.4,217.2,107.3,217.2z M122.2,189.8c-4.1,0-7.4-3.3-7.4-7.4c0-4.1,3.3-7.4,7.4-7.4
		c4.1,0,7.4,3.3,7.4,7.4C129.6,186.5,126.3,189.8,122.2,189.8z M136.5,225.2c-4.1,0-7.4-3.3-7.4-7.4s3.3-7.4,7.4-7.4
		c4.1,0,7.4,3.3,7.4,7.4S140.6,225.2,136.5,225.2z M142.8,147.9c0-4.1,3.3-7.4,7.4-7.4s7.4,3.3,7.4,7.4c0,4.1-3.3,7.4-7.4,7.4
		S142.8,152,142.8,147.9z M151.6,175.1c0-4.1,3.3-7.4,7.4-7.4s7.4,3.3,7.4,7.4c0,4.1-3.3,7.4-7.4,7.4S151.6,179.2,151.6,175.1z
		 M155.3,222.6c5.8,3.3,12.6,4.4,19.2,4c1.9-0.2,4.3-0.4,6-0.9l0.6,10.3C171.3,234.6,161.6,230.3,155.3,222.6z M187,191.5
		c-4.1,0-7.4-3.3-7.4-7.4c0-4.1,3.3-7.4,7.4-7.4s7.4,3.3,7.4,7.4C194.4,188.2,191.1,191.5,187,191.5z M194.2,210.3
		c0-4.1,3.3-7.4,7.4-7.4c4.1,0,7.4,3.3,7.4,7.4c0,4.1-3.3,7.4-7.4,7.4C197.6,217.8,194.2,214.4,194.2,210.3z M215.7,231.4
		c-4.6,2.3-9.4,3.9-14.6,4.5c0,0,0.6-10.3,0.6-10.3c6.1,1.5,12.8,1.4,18.9-0.4c2.2-0.6,4.2-1.6,6.3-2.7
		C224,226.3,220.1,229.3,215.7,231.4z M220.8,179.6c-4.1,0-7.4-3.3-7.4-7.4c0-4.1,3.3-7.4,7.4-7.4c4.1,0,7.4,3.3,7.4,7.4
		C228.3,176.3,225,179.6,220.8,179.6z M230,143.3c-4.1,0-7.4-3.3-7.4-7.4c0-4.1,3.3-7.4,7.4-7.4c4.1,0,7.4,3.3,7.4,7.4
		C237.4,139.9,234.1,143.3,230,143.3z M244.1,225.2c-4.1,0-7.4-3.3-7.4-7.4s3.3-7.4,7.4-7.4c4.1,0,7.4,3.3,7.4,7.4
		S248.2,225.2,244.1,225.2z M251.6,155.8c0-4.1,3.3-7.4,7.4-7.4c4.1,0,7.4,3.3,7.4,7.4c0,4.1-3.3,7.4-7.4,7.4
		C254.9,163.2,251.6,159.9,251.6,155.8z M259.8,189.8c-4.1,0-7.4-3.3-7.4-7.4c0-4.1,3.3-7.4,7.4-7.4c4.1,0,7.4,3.3,7.4,7.4
		C267.2,186.5,263.9,189.8,259.8,189.8z M274.3,218.1c-4.1,0-7.4-3.3-7.4-7.4s3.3-7.4,7.4-7.4c4.1,0,7.4,3.3,7.4,7.4
		S278.4,218.1,274.3,218.1z M289.2,183.3c-4.1,0-7.4-3.3-7.4-7.4s3.3-7.4,7.4-7.4c4.1,0,7.4,3.3,7.4,7.4S293.3,183.3,289.2,183.3z"
		/>
	<line class="st4" x1="367" y1="89.1" x2="367" y2="334.1"/>
	<g>
		<g>
			<path class="st1" d="M546.5,254.5l-12.2-32h-76l-12.2,32h-33l65-165.6h36.2l65,165.6H546.5z M496.3,118l-29.8,78.9h59.6
				L496.3,118z"/>
			<path class="st1" d="M593.2,254.5V89h81.4c30.5,0,47.2,18.9,47.2,42.2c0,20.6-13.4,34.8-28.8,38c17.9,2.7,32,20.4,32,40.5
				c0,25.8-16.9,44.9-48.2,44.9H593.2z M692,135.9c0-12.2-8.4-21.3-23.1-21.3h-46.7v42.7h46.7C683.5,157.2,692,148.5,692,135.9z
				 M695.2,205.9c0-12.4-8.7-23.1-25.1-23.1h-47.9V229h47.9C685.7,229,695.2,220.3,695.2,205.9z"/>
			<path class="st1" d="M893,254.5V126.7l-50.6,127.8H830l-50.9-127.8v127.8h-29V89h41l45.2,113.7L881.1,89h41v165.6H893z"/>
			<path class="st1" d="M942.7,171.9v-13.5c37.5-28.4,52.2-40.8,52.2-54.9c0-10.1-8.8-14.6-17.7-14.6c-11.3,0-19.8,4.5-26.1,11.4
				l-9.8-11c8.5-10.4,22.1-15.5,35.7-15.5c18.7,0,34.9,10.4,34.9,29.7c0,17.9-16.4,33.9-42.1,53.4h42.7v14.9H942.7z"/>
		</g>
	</g>
	<g>
		<g>
			<path class="st2" d="M430.1,313.2c-9.7-0.3-14.5-7.3-14.5-16.9c0-10,5.4-16.8,15.6-16.8c9.7,0,15.4,6,15.4,16.4
				c0,8.4-3.8,14.8-11,16.7c2.4,2.2,5.8,4.8,10.3,4.8c0.9,0,1.8,0,2.7-0.2l-0.9,3.6c-1.1,0.1-2.1,0.2-3,0.2c-6,0-10.2-4.2-13.1-6.6
				L430.1,313.2z M441.6,296.2c0-9.2-4-13.1-10.4-13.1c-6.5,0-10.6,4.1-10.6,13.4c0,9.5,4.2,13.2,10.3,13.2
				C437.5,309.7,441.6,305.4,441.6,296.2z"/>
			<path class="st2" d="M457.1,293.3h-3.7v-3.1h7.9v15.1c0,3.3,1.2,4.6,3.7,4.6c5.1,0,7.2-4.4,7.9-6.6v-10h-3.7v-3.1h7.9v19.3h3.7
				v3.1h-7.6L473,308c-0.9,1.9-3.3,5.3-8.8,5.3c-4.2,0-7.2-2.1-7.2-6.8V293.3z"/>
			<path class="st2" d="M488,296.5c-0.1-0.3-0.1-0.6-0.1-0.9c0-3.8,3.2-6.1,9.7-6.1c6.2,0,8.7,2.5,8.7,8.2v9.1c0,1.6-0.2,3,2.1,3
				c0.3,0,0.6,0,0.9,0l-0.7,2.9c-0.5,0-1,0.1-1.4,0.1c-3.4,0-4.5-2-4.6-4c-1.2,2.3-4,4.4-7.8,4.4c-3.9,0-7.6-2-7.6-6.1
				c0-5.1,5.9-7.7,15-7.8v-1.3c0-3.9-1.1-5.5-4.8-5.5c-3.3,0-5.5,1.1-5.5,4c0,0.2,0.1,0.3,0.1,0.5L488,296.5z M502.1,302.4
				c-7.4,0-10.5,1.6-10.5,4.5c0,1.9,1.4,3.1,3.9,3.1c3.2,0,6.4-2.3,6.6-5.2V302.4z"/>
			<path class="st2" d="M514.9,309.4h3.7v-28.8h-4.2v-3.1h8.4v31.9h3.8v3.1h-11.7V309.4z"/>
			<path class="st2" d="M533,309.4h3.7v-16.2h-4.2v-3.1h8.4v19.3h3.7v3.1H533V309.4z M538.3,279.6c1.7,0,3,1.2,3,2.8
				c0,1.6-1.3,2.8-3,2.8c-1.7,0-3-1.2-3-2.8C535.3,280.8,536.6,279.6,538.3,279.6z"/>
			<path class="st2" d="M554.2,293.3h-4.5v-3.1h4.6l0.3-6.6h3.8v6.6h6.8v3.1h-6.8v12.5c0,2.8,0.6,4.1,2.3,4.1c1.3,0,2.2-0.8,2.7-2.6
				l3.2,1.3c-1.1,2.5-2.8,4.5-6.4,4.5c-4.8,0-5.9-3.5-5.9-7.1V293.3z"/>
			<path class="st2" d="M574.1,319.9c0.8,0.7,2,1.3,3.2,1.3c2,0,3.9-1.9,4.5-5.6l0.5-3.4l-8.7-18.9h-2.8v-3.1h10.9v3.1h-3.6
				l4.8,10.7c0.4,1,1,2.4,1.4,3.5c0.2-1,0.8-2.4,1.3-3.5l4.4-10.7h-3.4v-3.1h10.4v3.1H594l-8,18.9l-0.6,4.2
				c-0.5,2.9-2.2,8.1-8.2,8.1c-2.5,0-4.1-0.9-5.1-1.6L574.1,319.9z"/>
			<path class="st2" d="M616.5,309.3h4.7v-25.7h-4.7v-3.3h15.8c11.1,0,16.5,6.5,16.5,15.6c0,8.6-4.9,16.7-16.4,16.7h-15.9V309.3z
				 M632.2,309c6.8,0,11.6-3.6,11.6-13c0-9-4.8-12.3-11.9-12.3h-6.1V309H632.2z"/>
			<path class="st2" d="M656.5,309.4h3.7v-16.2h-4.2v-3.1h8.4v19.3h3.7v3.1h-11.7V309.4z M661.8,279.6c1.7,0,3,1.2,3,2.8
				c0,1.6-1.3,2.8-3,2.8c-1.7,0-3-1.2-3-2.8C658.9,280.8,660.1,279.6,661.8,279.6z"/>
			<path class="st2" d="M694.1,286.6l3.6,0.5c0.2,0.6,0.2,1.1,0.2,1.6c0,2.2-1.2,4-3.6,5c0.6,1.2,0.9,2.5,0.9,4.1
				c0,5.4-3.7,8.4-9.8,8.4c-2,0-3.8-0.3-5.2-1c-1.1,0.7-1.7,1.4-1.7,2.4c0,5.3,19-1,19,9.2c0,5.3-5.1,7.5-11.6,7.5
				c-4.4,0-11.2-1-11.2-5.8c0-2.8,2.4-4.6,3.8-5.6c-2-0.7-3.8-1.7-3.8-4.4c0-2.2,1.3-3.7,3.2-5c-1.3-1.4-2-3.3-2-5.6
				c0-5.1,3.4-8.5,9.7-8.5c3,0,5.4,0.8,7,2.2c1-1,1.4-2.2,1.4-3.4V286.6z M678.5,317.8c0,2.8,4.2,3.4,7.4,3.4c4.2,0,7.7-1,7.7-3.8
				c0-3.7-6.1-3.2-11.5-3.7C680.4,314.6,678.5,315.9,678.5,317.8z M690.8,297.8c0-3.4-1.6-5.4-5.1-5.4c-3.6,0-5.1,2-5.1,5.5
				c0,3.4,1.4,5.3,5,5.3C689.2,303.2,690.8,301.3,690.8,297.8z"/>
			<path class="st2" d="M703.5,309.4h3.7v-16.2h-4.2v-3.1h8.4v19.3h3.7v3.1h-11.7V309.4z M708.9,279.6c1.7,0,3,1.2,3,2.8
				c0,1.6-1.3,2.8-3,2.8c-1.7,0-3-1.2-3-2.8C705.9,280.8,707.1,279.6,708.9,279.6z"/>
			<path class="st2" d="M724.7,293.3h-4.5v-3.1h4.6l0.3-6.6h3.8v6.6h6.8v3.1h-6.8v12.5c0,2.8,0.6,4.1,2.3,4.1c1.3,0,2.2-0.8,2.7-2.6
				l3.2,1.3c-1.1,2.5-2.8,4.5-6.4,4.5c-4.8,0-5.9-3.5-5.9-7.1V293.3z"/>
			<path class="st2" d="M743.6,296.5c-0.1-0.3-0.1-0.6-0.1-0.9c0-3.8,3.2-6.1,9.7-6.1c6.2,0,8.7,2.5,8.7,8.2v9.1c0,1.6-0.2,3,2.1,3
				c0.3,0,0.6,0,0.9,0l-0.7,2.9c-0.5,0-1,0.1-1.4,0.1c-3.4,0-4.5-2-4.6-4c-1.2,2.3-4,4.4-7.8,4.4c-3.9,0-7.6-2-7.6-6.1
				c0-5.1,5.9-7.7,15-7.8v-1.3c0-3.9-1.1-5.5-4.8-5.5c-3.3,0-5.5,1.1-5.5,4c0,0.2,0.1,0.3,0.1,0.5L743.6,296.5z M757.7,302.4
				c-7.4,0-10.5,1.6-10.5,4.5c0,1.9,1.4,3.1,3.9,3.1c3.2,0,6.4-2.3,6.6-5.2V302.4z"/>
			<path class="st2" d="M770.5,309.4h3.7v-28.8H770v-3.1h8.4v31.9h3.8v3.1h-11.7V309.4z"/>
			<path class="st2" d="M808,302.8c0.1,4.8,3.3,6.9,7.5,6.9c4.4,0,7.5-1.8,7.5-4.9c0-8.2-18.5-4.3-18.5-16.6c0-5.2,4.2-8.6,11.1-8.6
				c7,0,11.7,3.4,11.7,8.3v0.4l-4.4,0.9c-0.2-4-2.6-6-7.5-6c-3.9,0-6.2,1.7-6.2,4.6c0,8.7,18.5,5.2,18.5,16.4c0,5-4.2,9.1-12.3,9.1
				c-7.9,0-11.9-4.6-11.9-8.9c0-0.2,0.1-0.4,0.1-0.6L808,302.8z"/>
			<path class="st2" d="M856.4,306.8c-1.2,4-4.4,6.4-9.7,6.4c-7.1,0-11.2-3.7-11.2-11.8c0-6,2.7-12,11.1-12c6.4,0,9.8,3.2,9.8,10.1
				v2.4H840c0.1,4.2,1.3,8.1,6.8,8.1c3.2,0,5.2-1.8,5.9-3.9L856.4,306.8z M852,298.8V298c0-3-1.7-5.3-5.5-5.3
				c-3.4,0-5.7,1.9-6.4,6.2H852z"/>
			<path class="st2" d="M863.6,309.4h3.7v-16.2h-4.2v-3.1h8.2v4.8c0.8-2.3,3-5.5,6.9-5.5c2.7,0,3.9,2,3.9,2l-2.3,3.1
				c0,0-0.9-1.4-2.4-1.4c-3.6,0-5.3,4.6-5.9,8v8.3h4.2v3.1h-12.1V309.4z"/>
			<path class="st2" d="M888.8,293.3H886v-3.1h11v3.1h-3.7L899,307l5.6-13.7h-3.4v-3.1h10.4v3.1h-2.9l-8.1,19.3h-3.4L888.8,293.3z"
				/>
			<path class="st2" d="M917.2,309.4h3.7v-16.2h-4.2v-3.1h8.4v19.3h3.7v3.1h-11.7V309.4z M922.5,279.6c1.7,0,3,1.2,3,2.8
				c0,1.6-1.3,2.8-3,2.8c-1.7,0-3-1.2-3-2.8C919.5,280.8,920.7,279.6,922.5,279.6z"/>
			<path class="st2" d="M955.4,306.8c-1.2,3.9-4.1,6.4-9.6,6.4c-6.8,0-10.5-4.4-10.5-12c0-8.9,5.1-11.8,10.8-11.8
				c5.3,0,9.1,2.1,9.1,6.3c0,0.2-0.1,0.5-0.1,0.8l-4.2,0.7v-0.6c0-3.1-2-3.9-4.9-3.9c-4.8,0-6.2,4.2-6.2,8.7c0,6.3,2.6,8.6,6,8.6
				c3.3,0,5.3-1.7,5.8-3.9L955.4,306.8z"/>
			<path class="st2" d="M983.2,306.8c-1.2,4-4.4,6.4-9.7,6.4c-7.1,0-11.2-3.7-11.2-11.8c0-6,2.7-12,11.1-12c6.4,0,9.8,3.2,9.8,10.1
				v2.4h-16.4c0.1,4.2,1.3,8.1,6.8,8.1c3.2,0,5.2-1.8,5.9-3.9L983.2,306.8z M978.8,298.8V298c0-3-1.7-5.3-5.5-5.3
				c-3.4,0-5.7,1.9-6.4,6.2H978.8z"/>
			<path class="st2" d="M994.3,305.7c0,0.1-0.1,0.3-0.1,0.4c0,2.2,1.8,3.9,5.6,3.9c3.1,0,5.3-1,5.3-3c0-5.5-14-2.7-14-10.8
				c0-3.8,2.9-6.7,9-6.7c4.7,0,8.7,1.8,8.7,5.5c0,0.3-0.1,0.7-0.1,1l-4.2,0.7c0.1-0.2,0.1-0.4,0.1-0.7c0-1.5-1-3.3-4.7-3.3
				c-2.7,0-4.5,0.9-4.5,2.8c0,5.6,14.1,2.5,14.1,10.8c0,4.4-4,7-9.5,7c-4.7,0-9.8-1.8-9.8-6.3c0-0.2,0-0.4,0.1-0.7L994.3,305.7z"/>
		</g>
	</g>
</g>
</svg>
