<?xml version="1.0" encoding="utf-8"?>
<!-- Generator: Adobe Illustrator 26.0.1, SVG Export Plug-In . SVG Version: 6.00 Build 0)  -->
<svg version="1.1" id="Layer_1" xmlns="http://www.w3.org/2000/svg" xmlns:xlink="http://www.w3.org/1999/xlink" x="0px" y="0px"
	 viewBox="0 0 960.8 680.3" style="enable-background:new 0 0 960.8 680.3;" xml:space="preserve">
<style type="text/css">
	.st0{fill:#1D356F;}
	.st1{fill:#08BC6D;}
	.st2{fill:none;stroke:#FFFFFF;stroke-width:7;stroke-linecap:round;stroke-miterlimit:10;}
	.st3{fill:#FFFFFF;}
	.st4{fill:none;stroke:#1D356F;stroke-width:7;stroke-linecap:round;stroke-miterlimit:10;}
	.st5{fill:#2F8BF0;}
	.st6{fill:#387CED;}
	.st7{fill:#FE9502;}
	.st8{fill:#FEA702;}
	.st9{fill:url(#SVGID_1_);}
	.st10{fill:url(#SVGID_00000183934729150484902360000000613538947107168140_);}
	.st11{fill:url(#SVGID_00000178197468795348745050000003294096362561587631_);}
	.st12{fill:url(#SVGID_00000088812526435509358290000007845550906519510677_);}
</style>
<g>
	<path class="st5" d="M361.4,378.6l20-27.5h26.8c6.4,0,13.9,0,19,0.3c-2.9-3.8-7.4-10.4-10.9-15.5l-19.2-28.3L347,378.6h-39.1
		l68.5-96.7c4.5-6.2,11-12,21.4-12c9.9,0,16.5,5.3,21.1,12l66.8,96.7H361.4z"/>
	<path class="st5" d="M632.2,347.5c0,17.7-9.7,31.2-43.5,31.2h-94v-65h94.6c4.8,0,9.3-1.8,9.3-7.2c0-5.3-4.6-6.9-9.3-6.9h-94.6
		l22.4-27.8h70.8c25.6,0,42,9.9,42,29.6c0,12.6-7.2,19.7-14.5,22.4C624.7,326.4,632.2,334.7,632.2,347.5z M528,336.5v14.7h60.9
		c7.2,0,10.2-2.6,10.2-7.5c0-4.6-3-7.2-10.2-7.2H528z"/>
	<path class="st5" d="M719.9,311.5c9.4,16.5,13.6,24.4,17.3,32c3.5-7.5,7.7-15.3,17.1-31.8l17.1-30.4c3.8-6.9,9.6-11.3,18.2-11.3
		c8.3,0,15.7,4.8,18.5,14.7l27,94h-32.9l-10.1-37.2c-3.4-12.1-5.6-20.8-7.4-29.4c-3.5,7.5-7.5,15.7-14.9,29.6l-14.4,26.8
		c-5.6,10.5-11,12-19,12s-13.4-1.4-19-12l-14.4-27c-7.8-14.7-11.7-22.2-15-29.4c-1.6,8.5-4,17.4-7.2,29.4l-10.1,37.2h-32.4l27.6-94
		c2.9-9.9,10.4-14.7,18.7-14.7c8.5,0,14.2,4.3,18.1,11.3L719.9,311.5z"/>
</g>
<g>
	<polygon class="st6" points="77.9,322.7 333.7,158.8 501.2,247 331,55.2 	"/>
	<polygon class="st7" points="281,218.3 340,181.4 501.2,261.5 	"/>
</g>
<g>
	<polygon class="st6" points="77.9,361.9 333.7,525.8 501.2,437.6 331,629.4 	"/>
	<polygon class="st7" points="281,466.3 340,503.2 501.2,423.1 	"/>
</g>
<g>
	<path class="st8" d="M499.8,396.3c0,5.8-3.3,12.1-10.5,12.1c-4.9,0-7.5-3.3-7.5-8c0-5.8,3.5-12.4,10.5-12.4
		C497.2,388.1,499.8,391.4,499.8,396.3z M484.6,400.4c0,3.3,1.6,5.8,5,5.8c5,0,7.3-5.2,7.3-9.9c0-3.5-1.6-5.8-4.9-5.8
		C487,390.4,484.6,395.9,484.6,400.4z M494.7,406l5,3.8l-1.7,1.9l-5.9-4.5L494.7,406z"/>
	<path class="st8" d="M513,404.3c-0.3,1.3-0.6,2.7-0.8,3.9h-2.6c0-0.4,0.2-1.7,0.4-2.4c-1,1.6-2.6,2.7-4.8,2.7
		c-2.6,0-4.3-1.6-3.5-5.3l2-9.5h2.6l-2,9.2c-0.4,1.8-0.3,3.3,1.9,3.3c2.1,0,3.9-1.6,4.8-5.5l1.5-7h2.6L513,404.3z"/>
	<path class="st8" d="M527.6,404.6c-0.3,1.3-0.6,3-0.7,3.6h-2.6c0-0.5,0.2-1.4,0.3-2.1c-0.7,1.1-1.9,2.4-4.8,2.4c-2.9,0-4-1.9-4-3.7
		c0-4.1,3.8-5,6.8-5.3c1.4-0.1,2.7-0.1,3.5-0.2l0.2-0.9c0.3-1.3,0.2-3-2.5-3c-2.3,0-2.9,1.2-3.3,2.2h-2.7c0.5-2.2,2.1-4.2,6.3-4.2
		c3.4,0,5.6,1.5,4.8,5L527.6,404.6z M525.7,401.2c-0.8,0-1.7,0-2.9,0.2c-2.3,0.3-4.2,0.9-4.2,3c0,1,0.7,1.9,2.2,1.9
		c3.1,0,4.2-2.4,4.8-4.9L525.7,401.2z"/>
	<path class="st8" d="M530.5,408.1l4.4-20.8h2.6l-4.4,20.8H530.5z"/>
	<path class="st8" d="M540,393.7h2.6l-3.1,14.5h-2.6L540,393.7z M541.3,387.3h2.6l-0.7,3.2h-2.6L541.3,387.3z"/>
	<path class="st8" d="M544.5,393.7h2.3l0.9-4.1h2.6l-0.9,4.1h3l-0.5,2.1h-3l-1.8,8.5c-0.3,1.2-0.2,1.9,1,1.9c0.4,0,1,0,1.4-0.1
		l-0.5,2c-0.7,0.2-1.5,0.3-2.1,0.3c-2.4,0-3.1-1.2-2.6-3.7l1.9-8.9H544L544.5,393.7z"/>
	<path class="st8" d="M556.3,393.7c0.8,6.4,1.3,10.9,1.4,12.4h0c0.8-1.6,2.6-5.6,6.1-12.4h2.8l-8,15.3c-2.5,4.8-3.9,5.2-6.6,5.2
		c-0.6,0-1.3-0.1-1.7-0.2l0.5-2.3c0.3,0.1,0.6,0.1,1.3,0.1c1.9,0,2.5-0.8,3.7-2.8l-2.2-15.3H556.3z"/>
	<path class="st8" d="M584,392.3v6.7h6.6v2.3H584v6.8h-2.4v-6.8H575V399h6.6v-6.7H584z"/>
	<path class="st8" d="M602.4,402.3c0.2,2.5,1.8,3.9,4.5,3.9c2.5,0,4.2-1.1,4.2-3.4c0-1.7-0.9-2.8-4-4c-3.7-1.4-5.1-2.8-5.1-5.2
		c0-2.9,2.1-5.6,6.6-5.6c4.4,0,6.4,2.5,6.5,5.5h-2.8c-0.2-1.9-1.1-3.3-3.9-3.3c-2.3,0-3.6,1.3-3.6,3c0,1.3,0.6,2.1,3.5,3.2
		c4.1,1.5,5.6,3.2,5.6,5.8c0,3.1-2,6-7.4,6c-4.6,0-6.9-2.5-7-6.1H602.4z"/>
	<path class="st8" d="M619,401.4c-0.1,0.5-0.1,0.8-0.1,1.3c0,2.3,1,3.6,3,3.6c2,0,2.9-1.1,3.5-2.3h2.7c-0.9,2.2-2.7,4.4-6.6,4.4
		c-3.7,0-5.4-2.4-5.4-5.8c0-4,2.2-9.3,7.6-9.3c4,0,5.3,2.5,5.3,5.2c0,1-0.1,1.8-0.4,2.7H619z M626.5,399.4c0.1-0.3,0.1-0.7,0.1-1
		c0-1.8-0.9-3-2.9-3c-2.1,0-3.6,1.4-4.3,3.9H626.5z"/>
	<path class="st8" d="M632.4,398c0.3-1.4,0.6-3,0.8-4.3h2.5c0,0.4-0.2,1.8-0.5,3c1-2,2.8-3.3,5-3.3l-0.6,2.7
		c-2.7,0.2-4.8,2.1-5.5,5.4l-1.4,6.7h-2.6L632.4,398z"/>
	<path class="st8" d="M644.3,393.7c0.7,6.2,1.1,10.1,1.2,12h0c0.7-1.7,4.3-8,6.3-12h2.8l-8.1,14.5h-3.1l-1.8-14.5H644.3z"/>
	<path class="st8" d="M656.8,393.7h2.6l-3.1,14.5h-2.6L656.8,393.7z M658.1,387.3h2.6l-0.7,3.2h-2.6L658.1,387.3z"/>
	<path class="st8" d="M672.3,403.7c-1,2.8-2.9,4.7-6.5,4.7c-3.6,0-5.3-2.3-5.3-5.7c0-4.3,2.4-9.4,7.5-9.4c4.2,0,5.3,3,5.2,5h-2.6
		c-0.1-1.5-0.7-2.8-2.7-2.8c-3.2,0-4.7,4.1-4.7,7.1c0,2.6,1.2,3.7,3,3.7c1.6,0,2.8-0.9,3.5-2.6H672.3z"/>
	<path class="st8" d="M677.2,401.4c-0.1,0.5-0.1,0.8-0.1,1.3c0,2.3,1,3.6,3,3.6c2,0,2.9-1.1,3.5-2.3h2.7c-0.9,2.2-2.7,4.4-6.6,4.4
		c-3.7,0-5.4-2.4-5.4-5.8c0-4,2.2-9.3,7.6-9.3c4,0,5.3,2.5,5.3,5.2c0,1-0.1,1.8-0.4,2.7H677.2z M684.7,399.4c0.1-0.3,0.1-0.7,0.1-1
		c0-1.8-0.9-3-2.9-3c-2.1,0-3.6,1.4-4.3,3.9H684.7z"/>
	<path class="st8" d="M690.8,403.8c0.1,1.5,1,2.6,3.2,2.6c1.9,0,2.8-0.9,2.8-2.2c0-1.3-0.9-1.9-2.9-2.6c-3.2-1.1-4.1-2.2-4.1-3.9
		c0-2.3,1.8-4.3,5.3-4.3c3.8,0,5.3,2.1,5.2,4.2h-2.7c-0.1-1-0.6-2.2-2.8-2.2c-1.4,0-2.5,0.7-2.5,1.9c0,1,0.8,1.4,2.8,2.1
		c3.1,1.1,4.3,2.3,4.3,4.3c0,3-2.5,4.6-5.9,4.6c-3.7,0-5.6-1.9-5.5-4.7H690.8z"/>
	<path class="st8" d="M725.4,395.4v2.3h-15.6v-2.3H725.4z M725.4,402.5v2.3h-15.6v-2.3H725.4z"/>
	<path class="st8" d="M738.9,388.4h6.6c4,0,5.6,2.2,5.6,4.7c0,2.4-1.5,4.2-3.8,4.8c1.5,0.5,2.9,2,2.9,4.1c0,4.2-3.3,6.2-7.7,6.2
		h-7.9L738.9,388.4z M737.9,405.9h4.7c2.6,0,4.8-1.2,4.8-3.9c0-1.9-1.2-3.2-4.1-3.2h-3.9L737.9,405.9z M743.9,396.6
		c2.6,0,4.4-0.9,4.4-3.3c0-2-1.5-2.7-3.3-2.7h-3.8l-1.3,5.9H743.9z"/>
	<path class="st8" d="M763.9,404.3c-0.3,1.3-0.6,2.7-0.8,3.9h-2.6c0-0.4,0.2-1.7,0.4-2.4c-1,1.6-2.6,2.7-4.8,2.7
		c-2.6,0-4.3-1.6-3.5-5.3l2-9.5h2.6l-2,9.2c-0.4,1.8-0.3,3.3,1.9,3.3c2.1,0,3.9-1.6,4.8-5.5l1.5-7h2.6L763.9,404.3z"/>
	<path class="st8" d="M769,403.8c0.1,1.5,1,2.6,3.2,2.6c1.9,0,2.8-0.9,2.8-2.2c0-1.3-0.9-1.9-2.9-2.6c-3.2-1.1-4.1-2.2-4.1-3.9
		c0-2.3,1.8-4.3,5.3-4.3c3.8,0,5.3,2.1,5.2,4.2h-2.7c-0.1-1-0.6-2.2-2.8-2.2c-1.4,0-2.5,0.7-2.5,1.9c0,1,0.8,1.4,2.8,2.1
		c3.1,1.1,4.3,2.3,4.3,4.3c0,3-2.5,4.6-5.9,4.6c-3.7,0-5.6-1.9-5.5-4.7H769z"/>
	<path class="st8" d="M782.6,393.7h2.6l-3.1,14.5h-2.6L782.6,393.7z M783.9,387.3h2.6l-0.7,3.2h-2.6L783.9,387.3z"/>
	<path class="st8" d="M788.1,397.3c0.3-1.3,0.5-2.5,0.7-3.7h2.6c0,0.4-0.3,2-0.4,2.3c0.8-1.2,2.2-2.6,4.8-2.6c2.8,0,4.5,1.6,3.6,5.8
		l-1.9,9h-2.6l1.9-8.9c0.4-2.1,0-3.5-2.1-3.5c-2.5,0-4,2.3-4.6,5.2l-1.5,7.3h-2.6L788.1,397.3z"/>
	<path class="st8" d="M804.4,401.4c-0.1,0.5-0.1,0.8-0.1,1.3c0,2.3,1,3.6,3,3.6c2,0,2.9-1.1,3.5-2.3h2.7c-0.9,2.2-2.7,4.4-6.6,4.4
		c-3.7,0-5.4-2.4-5.4-5.8c0-4,2.2-9.3,7.6-9.3c4,0,5.3,2.5,5.3,5.2c0,1-0.1,1.8-0.4,2.7H804.4z M811.9,399.4c0.1-0.3,0.1-0.7,0.1-1
		c0-1.8-0.9-3-2.9-3c-2.1,0-3.6,1.4-4.3,3.9H811.9z"/>
	<path class="st8" d="M818,403.8c0.1,1.5,1,2.6,3.2,2.6c1.9,0,2.8-0.9,2.8-2.2c0-1.3-0.9-1.9-2.9-2.6c-3.2-1.1-4.1-2.2-4.1-3.9
		c0-2.3,1.8-4.3,5.3-4.3c3.8,0,5.3,2.1,5.2,4.2h-2.7c-0.1-1-0.6-2.2-2.8-2.2c-1.4,0-2.5,0.7-2.5,1.9c0,1,0.8,1.4,2.8,2.1
		c3.1,1.1,4.3,2.3,4.3,4.3c0,3-2.5,4.6-5.9,4.6c-3.7,0-5.6-1.9-5.5-4.7H818z"/>
	<path class="st8" d="M831,403.8c0.1,1.5,1,2.6,3.2,2.6c1.9,0,2.8-0.9,2.8-2.2c0-1.3-0.9-1.9-2.9-2.6c-3.2-1.1-4.1-2.2-4.1-3.9
		c0-2.3,1.8-4.3,5.3-4.3c3.8,0,5.3,2.1,5.2,4.2h-2.7c-0.1-1-0.6-2.2-2.8-2.2c-1.4,0-2.5,0.7-2.5,1.9c0,1,0.8,1.4,2.8,2.1
		c3.1,1.1,4.3,2.3,4.3,4.3c0,3-2.5,4.6-5.9,4.6c-3.7,0-5.6-1.9-5.5-4.7H831z"/>
</g>
<g>
	<path class="st5" d="M829.1,234h29.7c15.4,0,21.8,6.2,21.8,15.8c0,8.7-6,14.6-19,14.6h-24.1c-3.6,0-5.4,1.1-5.4,3.6v3.7H881
		l-10.1,13h-54v-16.6c0-9.2,6.7-13.9,19-13.9H860c3.6,0,5.4-1,5.4-3.6c0-2.6-1.7-3.5-5.4-3.5h-41L829.1,234z"/>
</g>
</svg>
